<?xml version="1.0" standalone="no"?>
<!DOCTYPE svg PUBLIC "-//W3C//DTD SVG 20010904//EN"
 "http://www.w3.org/TR/2001/REC-SVG-20010904/DTD/svg10.dtd">
<svg version="1.0" xmlns="http://www.w3.org/2000/svg"
 width="150px" height="150px" viewBox="0 0 1024.000000 1024.000000"
 preserveAspectRatio="xMidYMid meet">

<g transform="translate(0.000000,1024.000000) scale(0.100000,-0.100000)"
fill="#6DA5C0" stroke="none">
<path d="M5031 9486 c-44 -124 -99 -194 -208 -266 -88 -58 -192 -103 -433
-185 -102 -35 -277 -95 -390 -135 -319 -111 -566 -170 -709 -170 -36 0 -118 7
-181 16 -177 24 -287 8 -450 -65 -47 -21 -188 -68 -315 -104 -412 -118 -502
-146 -556 -172 l-54 -25 130 5 c79 3 166 13 220 25 230 53 235 52 160 -39 -31
-36 -76 -105 -100 -153 -75 -145 -166 -246 -333 -370 -110 -83 -166 -149 -188
-225 -19 -66 -9 -115 31 -153 55 -51 17 -126 -158 -308 -68 -71 -133 -148
-145 -173 -12 -24 -26 -76 -31 -115 -6 -39 -20 -96 -32 -127 l-22 -57 22 -50
c20 -46 22 -66 19 -188 l-2 -137 43 -88 c51 -101 50 -104 -36 -132 -29 -9 -53
-18 -53 -19 0 -2 8 -18 18 -37 12 -25 17 -58 17 -122 0 -93 2 -92 34 18 13 46
36 91 65 130 59 80 63 102 36 175 -39 104 -11 200 87 298 30 30 60 69 67 87
17 40 62 66 156 90 36 9 73 21 83 27 18 9 17 11 -13 29 -37 23 -60 72 -60 131
l0 43 -24 -58 c-13 -32 -30 -64 -37 -73 -20 -24 -98 -67 -112 -61 -7 3 -30 38
-50 78 -36 72 -37 76 -27 134 5 33 10 63 10 66 0 3 53 60 118 125 65 65 135
138 155 162 21 23 41 42 46 42 4 0 11 -26 15 -57 4 -32 11 -83 16 -113 8 -51
7 -56 -16 -75 -18 -15 -24 -31 -24 -59 0 -33 2 -37 15 -26 25 20 62 -2 70 -42
3 -18 22 -70 41 -115 55 -131 44 -192 -48 -266 -42 -33 -118 -48 -143 -27 -8
7 -15 8 -15 3 0 -15 61 -68 113 -97 26 -15 62 -46 78 -69 30 -40 31 -45 26
-117 -11 -154 -59 -236 -176 -302 -73 -40 -89 -55 -112 -100 -32 -62 -20 -139
25 -170 19 -13 22 -9 18 30 -3 32 2 42 35 74 36 35 128 88 152 88 12 0 15
-136 5 -214 -6 -43 -12 -51 -89 -115 -46 -39 -89 -85 -99 -105 -39 -82 -67
-219 -75 -371 -9 -155 -22 -215 -47 -215 -8 0 -28 7 -45 15 -29 15 -29 17 -24
78 4 50 0 76 -20 132 l-24 70 5 -78 c7 -100 -7 -127 -67 -127 -47 0 -79 27
-110 93 l-20 42 6 -52 c6 -47 4 -55 -19 -78 l-25 -25 27 -6 c38 -9 102 -47
131 -78 19 -20 34 -26 69 -26 91 0 142 -48 142 -132 0 -54 -11 -72 -38 -64
-18 6 -16 -2 18 -81 36 -84 70 -200 70 -237 0 -13 -12 -7 -45 26 -44 42 -215
152 -223 143 -2 -2 11 -23 30 -47 20 -24 72 -99 118 -167 128 -192 183 -326
226 -548 14 -76 41 -184 60 -240 l34 -101 -26 -89 c-41 -142 -104 -372 -104
-381 0 -4 53 -23 119 -41 l118 -33 23 -51 c13 -28 52 -81 87 -116 35 -36 63
-71 63 -77 0 -6 -62 -33 -137 -59 -76 -26 -142 -51 -147 -56 -5 -4 25 -8 65
-8 98 -1 179 -23 263 -73 138 -81 335 -314 336 -396 1 -87 16 -125 65 -169 41
-38 66 -49 193 -89 243 -76 264 -84 353 -140 113 -70 162 -91 229 -99 l55 -5
-42 14 c-93 30 -234 152 -250 214 -9 38 15 72 72 101 l50 26 305 0 c327 -1
356 -4 491 -59 82 -33 198 -101 250 -146 l44 -39 -96 39 c-53 22 -123 46 -155
55 -84 22 -214 19 -310 -6 -43 -12 -107 -22 -141 -23 -33 0 -56 -4 -50 -8 17
-11 125 -10 254 3 137 14 221 3 368 -48 107 -38 111 -40 103 -48 -3 -3 -59 9
-124 26 -195 53 -341 42 -434 -31 l-25 -20 35 11 c58 17 226 12 305 -9 380
-102 446 -124 547 -183 105 -61 235 -194 277 -283 18 -37 29 -71 26 -74 -3 -4
-41 30 -83 75 -117 123 -247 196 -394 223 -50 10 -60 8 -90 -10 -63 -38 -157
-23 -227 35 l-34 29 16 -30 c35 -68 80 -88 192 -87 l90 2 55 -50 c115 -105
167 -137 273 -170 130 -40 185 -68 227 -115 40 -46 77 -124 89 -188 11 -62 17
-65 24 -13 10 70 47 156 85 199 48 53 101 82 207 112 116 34 166 65 238 151
l59 70 91 1 c108 0 179 25 227 81 41 46 38 62 -4 25 -77 -68 -243 -95 -295
-48 -18 16 -21 16 -50 2 -17 -9 -63 -28 -103 -42 -128 -46 -188 -83 -271 -167
-43 -44 -80 -77 -83 -74 -9 9 33 95 72 148 51 69 183 172 289 225 75 37 107
47 198 59 59 8 140 27 180 41 203 72 294 82 472 51 60 -10 107 -13 140 -7 l50
7 -49 2 c-32 1 -80 14 -141 41 -126 53 -172 63 -265 58 -44 -3 -80 -2 -80 2 0
12 118 40 167 40 27 0 108 -10 181 -22 114 -19 141 -21 198 -11 92 16 98 29
11 25 -50 -3 -99 3 -162 18 -207 49 -265 47 -458 -20 -102 -35 -225 -65 -234
-57 -7 8 89 69 173 111 163 81 278 108 533 126 131 10 153 9 258 -11 225 -42
312 -17 406 117 89 128 107 215 63 310 -43 92 -130 144 -273 160 -98 12 -319
-42 -483 -118 -179 -83 -455 -293 -443 -338 6 -21 -88 -116 -175 -177 -29 -21
-78 -58 -110 -82 -31 -24 -102 -73 -157 -109 -217 -143 -347 -263 -429 -395
l-38 -62 6 55 c8 65 -7 52 -25 -23 l-11 -47 -34 70 c-47 99 -101 175 -177 249
-78 76 -146 123 -402 276 -231 138 -290 182 -446 333 -138 134 -147 141 -329
228 -168 82 -250 109 -381 130 -117 19 -198 11 -276 -27 -136 -66 -201 -227
-139 -347 14 -26 56 -82 95 -125 84 -92 91 -125 34 -156 -52 -27 -191 -2 -213
40 -6 10 -10 48 -10 86 0 76 -4 84 -91 190 -31 37 -73 100 -93 138 -21 39 -49
85 -62 102 -58 76 -201 142 -310 143 -123 0 -80 32 80 59 64 11 132 27 151 37
43 20 110 94 138 152 l21 43 56 -6 c30 -3 87 -10 125 -16 81 -11 467 -35 705
-45 91 -3 179 -8 195 -10 29 -4 283 -19 533 -30 l122 -6 0 -42 c0 -24 3 -84 6
-134 7 -91 7 -91 43 -115 21 -14 77 -33 136 -45 230 -49 268 -52 581 -52 264
0 314 3 395 20 111 24 267 65 274 72 3 3 12 47 21 99 8 52 19 108 25 125 l10
31 117 7 c64 4 187 15 272 26 182 22 359 36 635 50 241 13 410 29 624 59 l63
9 59 -62 c103 -111 189 -141 351 -124 91 10 158 5 158 -12 0 -6 -9 -10 -19
-10 -30 0 -191 -85 -238 -125 -23 -19 -54 -60 -69 -90 -34 -71 -30 -134 12
-197 l28 -43 8 54 c16 105 113 234 220 291 56 31 73 35 159 38 82 4 103 1 144
-17 26 -12 50 -20 52 -18 2 2 -21 27 -50 54 -53 51 -126 94 -179 107 -16 3
-28 11 -28 16 0 5 22 30 49 55 67 63 105 139 131 265 18 89 26 109 50 130 l29
26 -26 74 c-23 62 -27 91 -26 169 1 87 3 98 41 180 34 72 44 108 61 222 33
222 74 308 186 392 l40 29 -49 -7 c-36 -5 -51 -3 -57 7 -13 20 -10 70 6 98 19
34 18 40 -4 40 -11 0 -29 -12 -41 -28 -19 -24 -21 -35 -16 -91 5 -63 5 -65
-32 -105 -20 -23 -44 -52 -53 -66 -25 -37 -34 -17 -31 67 4 104 18 168 52 240
68 146 140 201 420 316 l35 14 -60 19 c-33 10 -89 18 -125 19 -57 1 -66 4 -76
24 -11 22 -12 21 -26 -21 -17 -50 -84 -105 -114 -94 -15 6 -16 18 -11 109 8
127 33 203 90 271 68 81 69 84 78 132 6 31 21 59 44 85 27 30 35 48 35 77 0
20 -5 44 -11 52 -8 12 -9 11 -4 -6 7 -27 -10 -74 -28 -74 -8 0 -22 9 -32 20
-19 21 -50 26 -60 10 -3 -5 -7 -46 -8 -92 -2 -63 -8 -94 -26 -128 -35 -67 -70
-110 -90 -110 -26 0 -31 19 -31 106 0 90 -16 132 -64 170 l-36 29 0 84 0 84
43 -8 c81 -14 97 -6 97 52 0 42 -40 88 -91 105 l-40 13 -5 125 c-2 69 -8 166
-14 215 -24 229 -23 242 23 188 12 -14 35 -41 50 -59 17 -20 48 -39 80 -50 82
-27 122 -57 142 -106 15 -37 18 -40 26 -23 39 99 -41 213 -222 312 -41 23 -85
53 -99 68 -23 24 -25 34 -24 109 1 62 7 93 23 124 33 65 111 112 185 112 41 0
141 -49 193 -94 88 -76 118 -206 73 -311 -32 -75 -27 -121 21 -196 72 -110 85
-168 54 -229 l-16 -30 35 0 c42 0 66 -33 74 -99 l5 -46 13 30 c28 64 8 177
-45 265 -43 71 -45 88 -9 121 l31 28 -25 12 c-32 14 -48 48 -48 102 0 32 8 54
35 91 41 58 45 107 15 175 -32 69 -117 166 -204 233 -45 34 -93 72 -108 86
-24 22 -31 23 -55 14 -15 -6 -48 -16 -73 -22 -25 -7 -80 -27 -123 -46 -42 -20
-85 -34 -95 -33 -9 1 -25 -1 -35 -6 -12 -5 -25 -1 -38 11 -34 31 -21 106 37
209 63 112 108 156 169 162 l46 6 -47 42 -48 41 17 75 c9 41 18 90 19 109 4
49 29 50 55 2 40 -69 91 -126 180 -197 106 -85 144 -136 150 -202 5 -51 -9
-75 -52 -86 -17 -4 -17 -5 3 -6 13 0 37 8 53 20 29 21 31 21 51 3 36 -33 52
-77 58 -159 l6 -80 20 40 c30 62 26 210 -8 291 -46 109 -90 167 -191 247 -99
79 -152 143 -169 204 -9 33 -7 38 25 72 67 70 73 113 28 206 -32 68 -61 97
-180 181 -45 32 -124 102 -175 155 -80 83 -99 110 -148 210 -33 69 -73 134
-102 165 -34 38 -42 53 -32 57 8 3 79 -10 158 -28 178 -43 348 -68 407 -59 28
4 39 9 30 14 -30 17 -530 176 -726 231 -56 16 -144 47 -195 70 -190 84 -302
103 -473 79 -299 -40 -519 -24 -790 60 -237 73 -831 286 -920 330 -203 99
-306 195 -365 345 l-26 66 -23 -65z m366 -592 c296 -43 698 -176 948 -315 606
-337 1113 -856 1409 -1444 208 -414 329 -784 366 -1122 44 -403 21 -857 -60
-1175 -73 -291 -225 -678 -265 -678 -9 0 -39 12 -67 28 -121 65 -154 81 -168
81 -8 1 -60 17 -115 36 -119 42 -141 42 -266 11 -260 -66 -546 -69 -834 -10
-192 40 -263 52 -390 64 -66 7 -127 16 -137 21 -9 5 -57 23 -105 40 -209 74
-559 278 -774 451 -115 92 -189 171 -307 327 -48 63 -147 187 -220 275 -336
405 -487 719 -496 1036 -2 55 -6 103 -9 106 -12 12 -20 -115 -14 -225 11 -221
88 -420 263 -678 179 -264 265 -369 514 -627 147 -151 216 -209 405 -338 266
-182 449 -287 582 -334 l68 -24 -65 6 c-158 13 -281 61 -515 198 -233 136
-327 211 -492 396 -109 122 -143 147 -83 62 18 -26 25 -40 14 -32 -314 252
-535 545 -669 885 -15 39 -30 72 -33 75 -10 10 9 -111 32 -201 22 -85 23 -91
6 -69 -32 41 -96 200 -118 291 -29 118 -46 312 -39 454 17 330 146 566 369
674 135 66 292 85 520 65 78 -7 103 -18 51 -22 -123 -10 -260 -79 -363 -182
-83 -82 -128 -157 -156 -260 -27 -97 -25 -364 5 -525 41 -225 170 -556 284
-727 104 -156 464 -504 725 -700 99 -75 320 -187 445 -227 53 -17 175 -49 270
-70 94 -22 222 -51 282 -65 342 -78 525 -87 870 -41 126 16 262 28 340 29 117
1 135 3 179 26 82 42 114 102 140 265 14 90 6 213 -19 297 -8 29 -15 56 -15
60 0 5 21 -6 47 -24 26 -17 81 -47 123 -65 l75 -33 12 28 c23 51 17 65 -40 95
-69 36 -167 119 -232 196 -55 66 -120 121 -143 121 -9 0 0 -16 25 -43 70 -75
91 -177 47 -221 -13 -13 -12 -22 2 -75 14 -50 15 -65 4 -91 -24 -58 -101 -91
-275 -116 l-90 -13 105 3 105 4 -55 -14 c-97 -24 -310 -44 -475 -45 -162 0
-231 -9 -169 -22 136 -27 285 -30 509 -12 89 8 36 -11 -72 -26 -108 -14 -380
-6 -473 15 -137 30 -427 137 -588 216 -89 44 -159 73 -155 66 24 -42 128 -117
232 -168 126 -62 132 -71 25 -34 -107 36 -236 99 -295 144 -128 95 -351 355
-410 478 -102 210 -107 437 -14 560 15 20 29 34 31 31 2 -2 -8 -28 -24 -58
-24 -49 -27 -64 -27 -159 0 -84 5 -119 23 -172 45 -128 178 -282 337 -388 44
-29 104 -79 133 -111 102 -112 234 -200 367 -243 146 -47 535 -107 535 -82 0
3 -14 15 -31 25 l-30 18 48 35 c72 53 78 54 216 72 150 20 215 42 295 100 90
67 115 149 68 221 -22 34 -36 31 -36 -5 0 -67 -112 -148 -262 -190 -83 -23
-460 -89 -516 -91 -20 -1 -48 -5 -62 -9 -16 -6 -2 -7 40 -4 47 4 61 3 50 -5
-9 -6 -77 -11 -160 -12 l-145 -2 120 -13 120 -13 -112 3 c-79 3 -120 8 -136
18 -12 9 -38 19 -57 23 -69 14 -198 84 -257 140 l-58 54 65 0 c67 0 246 -10
498 -29 266 -19 621 23 752 90 80 41 110 112 70 163 -17 22 -29 27 -54 25 -35
-3 -52 -38 -18 -38 11 0 25 -7 32 -16 11 -12 11 -18 -2 -31 -21 -20 -73 -9
-93 20 -78 111 145 222 317 157 57 -21 120 -79 197 -182 56 -74 194 -188 229
-188 5 0 15 28 21 63 7 34 15 72 18 85 5 21 2 22 -55 22 -67 0 -159 17 -167
30 -3 5 40 9 96 9 75 0 108 5 125 16 13 8 24 19 24 24 0 5 -55 10 -122 13 -68
2 -131 8 -140 14 -10 5 -39 36 -66 69 -27 34 -70 72 -100 90 -37 21 -50 34
-45 45 55 129 68 270 34 360 -62 162 -216 261 -406 263 -120 2 -216 -37 -299
-119 -68 -68 -116 -183 -116 -277 0 -87 17 -87 22 0 5 92 28 148 89 217 47 54
164 116 233 123 l45 5 -45 -46 c-42 -44 -44 -49 -44 -107 0 -56 3 -64 34 -95
31 -31 40 -34 90 -34 31 0 64 -5 74 -11 14 -9 26 -8 50 5 27 14 32 22 32 52 0
62 -59 104 -130 94 -21 -3 -51 -31 -44 -41 10 -16 44 -9 56 11 17 26 43 25 62
-2 21 -29 20 -51 -2 -78 -17 -21 -21 -22 -75 -10 -38 7 -67 21 -88 41 -29 27
-31 33 -27 81 5 44 11 57 42 85 49 45 116 46 203 3 152 -76 233 -251 189 -404
-23 -78 -70 -124 -161 -155 -39 -13 -112 -45 -163 -72 -83 -44 -100 -49 -156
-49 -77 0 -133 18 -198 66 -28 19 -53 33 -56 30 -3 -3 25 -37 61 -75 37 -38
67 -74 67 -80 0 -8 -151 -10 -552 -8 -535 4 -555 5 -608 26 -136 52 -218 199
-208 375 5 93 26 141 85 198 43 42 98 68 143 68 30 0 42 -21 20 -35 -5 -3 -15
-16 -21 -28 -7 -14 2 -9 25 15 37 37 37 37 104 31 59 -4 71 -2 102 19 37 25
80 82 80 105 0 8 -13 28 -29 44 -25 24 -38 29 -79 29 -33 0 -52 5 -55 14 -7
17 -75 34 -107 26 -49 -12 -36 -38 33 -71 56 -26 68 -28 90 -18 22 10 31 9 52
-5 34 -22 33 -54 -2 -67 -25 -10 -39 -5 -120 37 -81 41 -101 47 -152 47 -111
-1 -220 -77 -280 -195 -41 -83 -55 -161 -48 -278 8 -136 46 -261 127 -426 78
-157 123 -210 275 -324 218 -164 501 -253 970 -305 340 -38 560 -13 808 90 29
12 20 -15 -18 -51 -58 -54 -185 -94 -380 -120 -168 -22 -630 -23 -820 -1 -277
32 -412 71 -640 186 -412 210 -652 410 -852 711 -108 163 -185 316 -240 475
l-24 70 5 -52 c14 -152 175 -491 320 -677 149 -190 334 -334 653 -507 219
-120 238 -137 88 -84 -19 6 -18 5 2 -13 27 -24 214 -87 336 -112 190 -40 466
-82 597 -90 310 -22 720 39 915 134 l85 42 0 -36 c0 -78 -118 -129 -394 -170
-542 -81 -962 -39 -1482 146 -179 63 -261 103 -448 214 -317 189 -495 353
-692 635 -159 229 -213 340 -254 529 -58 262 -40 661 36 822 46 97 151 176
320 239 89 33 103 32 29 -4 -163 -78 -283 -245 -326 -456 -29 -140 -22 -399
14 -555 32 -138 83 -288 113 -336 29 -48 30 -35 5 64 -85 333 -99 650 -38 827
60 174 131 261 271 329 69 34 181 65 192 54 3 -4 -4 -24 -15 -46 -56 -111 -89
-344 -71 -508 29 -262 105 -484 231 -676 48 -72 51 -82 46 -124 -2 -25 -9 -50
-14 -55 -16 -16 -98 65 -157 154 -126 190 -197 364 -251 612 -25 119 -34 95
-14 -38 35 -236 133 -491 272 -712 136 -216 418 -522 578 -628 238 -158 615
-292 973 -347 124 -18 347 -28 333 -14 -3 3 -70 17 -149 30 -282 48 -421 88
-723 204 -239 92 -330 140 -416 218 -158 143 -233 255 -264 392 l-15 65 6 -74
c3 -40 11 -104 19 -143 15 -82 7 -84 -46 -14 -44 58 -68 128 -76 217 -5 54 0
88 26 187 74 289 176 453 326 529 44 22 129 43 175 43 25 0 30 4 30 24 0 45
58 65 116 41 38 -15 61 -12 34 5 -45 29 -140 22 -168 -11 -11 -12 -29 -19 -52
-19 -96 0 -218 -71 -303 -175 -49 -60 -118 -192 -161 -307 -13 -34 -28 -64
-34 -66 -25 -8 -156 253 -197 393 -98 338 -80 636 50 835 80 122 176 188 345
236 164 46 231 90 274 176 49 97 27 156 -91 246 -103 79 -108 86 -123 166 -19
101 -48 128 -225 215 -154 76 -165 79 -356 110 -69 11 -217 43 -329 71 -111
27 -216 50 -231 50 -16 0 -102 -30 -191 -67 -90 -37 -302 -115 -473 -173 -170
-59 -366 -129 -435 -154 -180 -68 -400 -143 -400 -137 2 27 133 193 240 304
222 232 532 463 815 607 335 171 674 265 1060 294 90 6 358 -5 462 -20z
m-2329 -211 c20 -10 40 -26 46 -35 18 -30 -3 -38 -82 -28 -134 17 -293 -19
-401 -91 -66 -44 -81 -48 -81 -20 0 26 84 100 159 140 112 59 277 75 359 34z
m4406 -3 c33 -11 81 -34 107 -51 49 -31 129 -111 129 -129 0 -18 -36 -10 -71
16 -59 44 -126 74 -217 95 -72 18 -105 20 -194 15 -60 -3 -108 -4 -108 -2 0
29 43 61 105 77 48 13 185 2 249 -21z m-4015 -106 c-22 -26 -120 -88 -184
-116 -75 -33 -140 -45 -279 -53 -175 -10 -288 -40 -441 -118 -101 -52 -139
-80 -259 -191 -125 -116 -196 -215 -228 -319 -24 -76 -29 -181 -18 -419 5 -97
3 -109 -16 -135 -48 -64 -67 -35 -89 133 -28 213 -17 356 41 514 36 101 81
170 172 263 139 142 209 190 349 240 40 15 101 44 136 67 117 73 209 95 495
116 112 8 220 19 240 23 20 5 50 9 66 10 25 1 27 -1 15 -15z m3591 -13 c342
-19 414 -35 557 -123 34 -22 105 -56 157 -77 53 -21 121 -58 152 -82 82 -63
224 -217 267 -290 80 -135 113 -303 104 -523 -11 -261 -45 -335 -104 -222 -13
26 -14 49 -7 151 15 199 9 281 -26 387 -17 51 -45 116 -63 143 -39 61 -202
232 -277 290 -70 54 -189 114 -309 155 -87 30 -110 33 -275 40 -194 9 -229 16
-319 62 -59 29 -157 95 -157 105 0 3 26 3 58 0 31 -4 140 -11 242 -16z m430
-281 c140 -20 226 -63 278 -140 24 -37 38 -77 28 -87 -3 -3 -41 6 -84 20 -42
14 -134 33 -202 42 -129 16 -196 33 -265 67 -49 25 -145 95 -145 107 0 11 299
3 390 -9z m-4416 1 c8 -12 -37 -49 -113 -96 -51 -30 -88 -42 -228 -71 -93 -20
-188 -44 -212 -55 -56 -24 -61 -24 -61 4 0 49 73 131 154 174 56 29 196 52
328 52 70 1 129 -3 132 -8z m1526 -165 c102 -25 251 -56 333 -70 154 -27 212
-47 337 -116 113 -62 127 -79 149 -182 11 -50 19 -63 63 -100 123 -104 148
-133 148 -172 0 -28 -7 -45 -29 -67 -26 -25 -37 -29 -86 -29 -36 0 -75 8 -108
22 -57 25 -67 25 -269 13 -220 -13 -420 25 -525 100 -107 77 -135 90 -193 90
-45 -1 -67 -7 -120 -38 -146 -83 -202 -106 -340 -133 -260 -51 -439 -139 -609
-299 -261 -246 -530 -772 -555 -1085 -6 -75 1 -58 34 85 52 223 166 465 348
739 83 125 260 306 350 358 34 20 62 35 62 34 0 -1 -26 -29 -58 -61 -153 -158
-265 -405 -291 -638 -14 -122 -14 -473 -1 -608 28 -287 114 -567 256 -839 62
-119 228 -368 339 -510 80 -104 133 -196 119 -209 -11 -10 -254 -59 -335 -68
-47 -5 -65 -2 -110 19 -230 106 -670 594 -829 918 -25 53 -55 126 -65 163 -22
75 -35 86 -35 30 0 -36 -14 -111 -26 -143 -9 -23 -80 180 -108 305 -38 170
-50 285 -49 475 0 187 9 273 49 468 14 68 24 126 21 128 -6 7 -64 -221 -86
-341 -34 -180 -44 -309 -38 -475 6 -177 20 -251 83 -439 79 -240 225 -499 413
-736 105 -133 335 -361 434 -431 101 -72 100 -74 -43 -81 -167 -9 -360 28
-577 112 -121 46 -257 127 -250 148 2 7 16 13 30 15 24 3 27 0 27 -27 0 -19 7
-34 18 -39 9 -5 73 -9 141 -10 l124 -2 -6 36 c-3 20 -25 71 -49 113 -57 101
-246 293 -334 339 -63 33 -94 40 -94 22 0 -22 -30 -8 -45 19 -63 123 -115 644
-95 957 14 216 35 353 90 569 58 225 88 320 165 515 111 282 283 588 343 612
224 89 863 328 1062 398 107 37 256 92 330 122 192 79 189 78 250 73 30 -2
138 -24 240 -49z m2965 -132 c44 -9 114 -22 155 -30 199 -38 328 -155 365
-331 19 -87 20 -256 3 -251 -7 3 -16 24 -20 48 -23 136 -127 245 -280 295
-170 57 -252 110 -328 213 -61 82 -63 93 -12 81 20 -5 73 -16 117 -25z m-4765
11 c0 -25 -102 -138 -160 -177 -30 -20 -102 -53 -160 -73 -124 -43 -201 -86
-241 -136 -46 -58 -79 -138 -79 -191 0 -27 -4 -48 -10 -48 -15 0 -12 195 4
262 26 113 111 219 218 272 27 14 93 35 146 46 54 12 131 29 172 39 96 23 110
24 110 6z m-943 -303 c9 -6 9 -28 -3 -97 -9 -50 -17 -91 -19 -93 -1 -2 -19 12
-39 31 -50 48 -47 105 8 149 23 19 35 22 53 10z m6607 -23 c37 -43 33 -77 -12
-127 -21 -23 -41 -42 -44 -42 -3 0 -8 28 -11 63 -4 34 -10 79 -13 100 -6 36
-6 37 24 37 21 0 38 -9 56 -31z m-5964 -40 c0 -6 -24 -34 -54 -64 -45 -45 -65
-57 -127 -76 -83 -25 -107 -38 -127 -71 -12 -21 -13 -20 -8 16 6 48 43 105 91
142 57 43 225 83 225 53z m5352 -19 c49 -15 78 -32 111 -64 59 -57 119 -169
65 -119 -31 27 -59 42 -121 60 -71 20 -124 53 -177 108 l-45 48 50 -6 c28 -3
80 -15 117 -27z m105 -283 c74 -47 171 -170 188 -238 7 -28 -32 -209 -45 -209
-4 0 -22 37 -40 83 -18 45 -68 153 -111 239 -44 87 -79 160 -79 163 0 8 47
-13 87 -38z m-5689 -129 c-36 -73 -82 -175 -103 -226 -21 -51 -42 -89 -46 -85
-13 15 -39 116 -39 156 0 56 36 122 105 193 53 54 133 109 144 99 2 -2 -26
-64 -61 -137z m3052 103 l25 -7 -32 -17 c-48 -25 -137 -31 -254 -17 -132 16
-166 28 -84 30 33 1 83 5 110 10 64 9 202 10 235 1z m-1486 -175 c-141 -155
-204 -365 -204 -677 0 -175 17 -303 66 -489 76 -289 168 -516 272 -670 28 -41
47 -79 43 -83 -15 -15 -59 12 -109 69 -80 90 -65 37 30 -104 27 -40 76 -104
109 -142 133 -155 456 -422 737 -609 67 -45 129 -93 138 -106 8 -13 24 -52 34
-87 l19 -63 -36 45 c-84 103 -157 163 -345 283 -108 68 -335 244 -402 310 -78
78 -127 139 -204 252 -33 50 -94 129 -135 177 -99 115 -210 283 -296 448 -128
246 -150 333 -150 580 -1 328 73 610 206 792 38 51 48 59 100 73 32 9 81 25
108 35 28 10 54 19 59 19 4 1 -14 -23 -40 -53z m-2360 -301 c37 -54 41 -66 41
-120 -1 -63 -18 -111 -47 -129 -26 -16 -69 4 -91 42 -18 31 -19 39 -7 107 7
41 10 93 7 117 -3 23 -1 50 4 61 10 18 11 18 31 0 11 -10 39 -45 62 -78z
m1876 -1076 c106 -306 243 -556 416 -753 50 -58 212 -211 381 -359 19 -17 25
-18 38 -7 23 19 99 15 147 -9 24 -11 79 -50 123 -87 44 -36 113 -83 155 -104
71 -36 166 -107 156 -117 -2 -3 -15 1 -28 8 -22 12 -22 11 -8 -6 8 -10 45 -49
82 -86 74 -75 155 -193 165 -241 5 -27 -4 -20 -83 59 -153 153 -262 209 -572
294 -214 58 -206 55 -226 96 -21 45 -82 118 -209 251 -195 205 -310 369 -417
595 -101 211 -188 514 -195 677 l-5 95 19 -92 c11 -51 39 -148 61 -214z m575
-141 c15 -12 53 -60 83 -107 155 -242 333 -419 628 -626 32 -22 123 -91 202
-154 224 -176 385 -278 507 -322 28 -10 44 -18 37 -18 -7 -1 -34 -10 -59 -22
-25 -11 -52 -21 -61 -21 -30 -2 -373 238 -535 374 -87 72 -261 203 -397 298
-129 90 -246 208 -322 320 -139 209 -183 357 -83 278z m-1997 -164 l3 -50 -75
-24 c-42 -13 -79 -21 -82 -17 -22 21 39 110 91 133 49 22 60 15 63 -42z m5189
-97 c4 -5 1 -12 -6 -16 -7 -5 -230 -10 -495 -11 -736 -4 -707 -5 -746 13 -34
15 -31 15 75 11 61 -3 187 -1 280 3 214 11 881 10 892 0z m-637 -102 c253 -14
253 -14 65 -9 -104 2 -266 4 -360 5 -100 1 -158 4 -140 9 44 11 148 10 435 -5z
m-4682 -62 c5 -37 -18 -102 -49 -138 -32 -36 -59 -46 -59 -22 0 22 37 124 57
157 20 34 46 36 51 3z m171 -104 c12 -59 33 -146 47 -195 40 -135 44 -154 44
-227 0 -76 -24 -158 -73 -251 -57 -106 -117 -150 -117 -85 0 26 -3 29 -14 20
-8 -6 -19 -25 -26 -41 -7 -17 -16 -30 -21 -30 -4 0 -12 26 -18 58 -20 103 -42
176 -78 257 -22 51 -37 103 -40 142 -8 86 29 162 131 271 52 56 85 102 103
143 14 33 29 56 34 52 4 -4 17 -56 28 -114z m6392 111 c41 -22 48 -57 44 -221
-2 -85 -8 -166 -13 -180 -7 -18 -6 -44 4 -90 19 -89 16 -160 -9 -254 -26 -95
-41 -101 -78 -32 -27 50 -32 50 -58 -1 -10 -19 -8 -27 20 -62 20 -24 35 -57
39 -83 8 -56 -4 -180 -19 -185 -47 -16 -108 -73 -140 -132 l-36 -65 -2 70 c-1
39 -7 142 -14 231 l-11 160 32 75 c81 189 128 356 174 617 31 173 30 171 67
152z m-6235 -616 c-16 -51 -38 -76 -53 -60 -6 6 8 52 40 136 l9 25 11 -23 c8
-17 6 -36 -7 -78z m284 43 c0 -6 -9 -2 -20 8 -11 10 -20 23 -20 28 0 6 9 2 20
-8 11 -10 20 -23 20 -28z m2529 -144 c13 -14 -78 41 -105 63 -16 14 0 6 35
-16 36 -22 67 -43 70 -47z m-2731 -75 c16 -24 48 -78 71 -121 47 -89 45 -101
-17 -142 -48 -31 -83 -39 -103 -23 -27 22 -59 135 -59 211 0 59 17 155 37 207
3 9 12 -5 23 -37 10 -29 32 -72 48 -95z m-146 -60 c2 -7 -1 -60 -8 -118 -7
-58 -10 -142 -7 -187 6 -92 0 -101 -41 -53 -32 39 -40 83 -32 176 9 114 69
237 88 182z m2173 -48 c273 -64 437 -144 583 -284 65 -62 142 -167 142 -193 0
-9 -20 2 -52 30 -297 249 -519 350 -828 377 -158 13 -265 1 -495 -55 -99 -25
-216 -47 -260 -50 l-80 -6 84 26 c47 14 117 40 155 57 141 62 331 119 436 131
68 9 197 -5 315 -33z m783 24 c20 -14 22 -24 22 -104 0 -49 -4 -91 -8 -94 -20
-12 -51 94 -52 172 0 46 5 50 38 26z m212 6 c-20 -13 -33 -13 -25 0 3 6 14 10
23 10 15 0 15 -2 2 -10z m-120 -74 c-6 -31 -14 -56 -17 -56 -6 0 6 100 14 113
12 20 14 -5 3 -57z m926 34 c49 -5 173 -25 273 -45 290 -56 425 -57 841 -4
206 25 219 25 309 -15 42 -19 127 -55 189 -81 61 -26 112 -49 112 -52 0 -3
-39 -3 -86 1 -74 6 -86 5 -81 -7 5 -13 -20 -44 -49 -60 -23 -13 -225 -49 -353
-62 -231 -25 -562 -16 -726 19 -33 8 -116 30 -185 51 -113 34 -139 38 -266 43
-307 10 -658 -77 -864 -213 -41 -28 -78 -51 -82 -53 -17 -8 -6 36 21 84 39 66
122 141 207 186 105 55 187 68 436 68 307 0 418 -14 666 -84 184 -53 346 -70
587 -63 237 7 487 38 545 67 22 11 40 24 40 28 0 6 -76 36 -127 49 -13 3 -32
-3 -50 -16 -69 -50 -276 -83 -519 -83 -193 0 -266 11 -480 71 -176 50 -222 59
-364 71 -151 13 -508 13 -607 0 -96 -13 -213 -66 -296 -135 -58 -47 -58 -47
-42 -16 9 18 46 63 83 100 80 81 182 135 293 157 82 15 410 12 575 -6z m-3407
-85 c88 -43 108 -46 29 -4 -32 16 -58 31 -58 34 0 3 24 -4 53 -15 136 -53 525
-129 658 -130 31 0 143 16 250 36 225 41 406 53 542 35 331 -44 613 -198 756
-411 48 -72 55 -101 11 -48 -73 89 -290 222 -460 283 -258 92 -597 110 -935
50 -136 -24 -167 -26 -330 -22 -173 4 -328 27 -465 67 -70 20 -140 13 -213
-24 l-69 -35 44 -11 c24 -7 99 -27 168 -46 251 -69 308 -78 510 -78 135 -1
214 4 290 17 264 46 520 59 684 36 153 -21 311 -81 466 -177 119 -73 256 -179
307 -237 65 -74 123 -172 123 -209 0 -28 3 -26 37 33 40 67 155 189 238 252
108 82 361 188 530 221 55 11 159 23 230 28 l130 9 -150 -5 c-237 -6 -388 -45
-610 -157 -114 -57 -195 -118 -285 -214 -70 -75 -76 -73 -31 14 51 101 200
239 330 306 145 76 350 124 563 134 157 7 201 0 387 -58 251 -78 304 -84 755
-84 l400 0 -125 -17 c-411 -55 -579 -50 -948 27 -189 40 -244 45 -96 9 281
-68 356 -78 595 -78 167 0 280 6 440 23 398 42 393 42 414 8 9 -15 6 -23 -16
-42 -32 -28 -44 -29 -363 -46 -430 -23 -570 -18 -780 27 -66 14 -163 35 -215
46 -115 25 -385 30 -523 10 -232 -34 -458 -116 -627 -227 -124 -82 -264 -243
-275 -317 -5 -30 -5 -31 5 -9 22 50 100 148 172 217 226 215 555 324 983 325
173 1 224 -5 422 -50 287 -65 461 -75 851 -45 189 14 236 14 221 0 -2 -2 -96
-18 -208 -35 -112 -17 -206 -33 -210 -35 -3 -2 -57 -9 -119 -15 -124 -13 -331
-2 -502 24 -300 48 -365 56 -465 62 -201 10 -446 -26 -599 -89 -177 -72 -351
-201 -450 -332 -85 -113 -82 -120 12 -27 99 99 193 154 369 215 164 56 241 68
493 73 204 4 252 2 515 -27 342 -37 604 -47 835 -30 345 24 490 25 490 2 0 -4
-40 -20 -90 -35 -75 -24 -119 -31 -271 -39 -227 -14 -600 1 -954 38 -414 43
-685 35 -905 -26 -167 -47 -371 -162 -486 -275 -79 -78 -108 -131 -33 -59 150
140 241 201 383 254 121 46 232 72 380 91 122 15 476 6 656 -16 86 -11 283
-18 630 -24 442 -8 607 -17 678 -37 20 -6 9 -28 -19 -35 -39 -11 -670 -10
-824 1 -77 6 -225 20 -330 31 -244 27 -574 36 -731 19 -246 -25 -377 -63 -538
-156 -166 -96 -258 -184 -302 -289 -22 -55 2 -41 32 17 55 109 172 204 364
297 117 56 176 74 324 95 246 36 546 29 861 -21 162 -25 193 -27 665 -32 431
-5 495 -8 495 -21 0 -25 -148 -31 -630 -26 -247 3 -621 8 -830 10 l-380 3 345
-7 c190 -4 440 -13 555 -20 143 -9 330 -11 588 -7 207 4 377 3 377 -2 0 -8
-128 -24 -290 -36 -41 -3 -376 -10 -745 -15 -368 -5 -740 -14 -825 -20 -170
-11 -371 -35 -438 -52 -69 -17 -42 -19 43 -3 173 33 382 46 930 55 773 12
1028 19 1198 31 112 9 152 8 160 0 27 -27 -31 -37 -428 -76 -143 -13 -287 -27
-320 -30 -65 -6 -534 -26 -1155 -50 -314 -13 -397 -19 -406 -30 -6 -7 -18 -51
-28 -97 -10 -46 -24 -95 -32 -109 -19 -37 -68 -76 -112 -90 -49 -15 -459 -29
-573 -19 -132 10 -156 33 -215 205 -29 84 -34 91 -66 102 -47 16 -336 39 -973
78 -743 45 -903 58 -1154 93 -84 12 -126 22 -129 31 -4 11 12 13 89 7 331 -23
678 -37 1091 -46 721 -15 969 -31 1062 -67 121 -48 180 -117 198 -231 13 -86
33 -120 79 -133 23 -7 120 -10 270 -7 266 4 285 9 312 76 17 42 37 141 37 183
0 15 -8 37 -19 50 -18 22 -19 22 -45 6 -39 -26 -57 -60 -75 -140 l-17 -72
-186 0 c-212 0 -215 1 -243 84 -18 56 -55 115 -55 89 0 -30 -16 -20 -56 32
-37 49 -91 93 -151 124 -58 29 -48 17 18 -23 62 -37 139 -120 139 -150 0 -7
-19 4 -43 26 -95 88 -178 118 -366 132 -164 13 -587 29 -971 36 -424 8 -1045
46 -1063 64 -8 8 120 11 439 13 l449 1 -387 7 c-391 8 -493 14 -503 31 -7 10
-7 10 100 11 65 0 72 2 35 7 -25 3 56 5 180 3 251 -4 536 13 900 54 198 23
252 25 450 21 241 -5 340 -18 482 -63 202 -64 384 -196 457 -333 32 -61 61
-94 61 -71 0 27 -68 138 -119 193 -123 133 -320 229 -559 273 -127 24 -503 30
-722 13 -454 -36 -1010 2 -1226 82 -69 26 -74 52 -14 70 36 11 58 9 188 -19
290 -63 328 -66 757 -62 909 7 929 6 1145 -66 161 -54 359 -167 414 -236 14
-18 26 -27 26 -20 0 7 -33 45 -72 85 -121 119 -326 212 -558 253 -94 17 -172
19 -735 20 l-630 1 -135 31 -135 30 275 -5 c190 -4 374 0 595 11 412 22 603
11 834 -46 184 -45 367 -139 470 -241 58 -56 77 -81 170 -227 53 -81 43 -41
-13 55 -53 91 -198 236 -297 298 -136 84 -285 135 -509 173 -134 23 -413 24
-717 5 -186 -13 -281 -13 -595 -3 -221 8 -399 18 -436 26 -69 14 -115 47 -95
67 21 21 104 21 458 0 302 -19 374 -20 520 -11 287 19 667 24 800 10 239 -25
426 -89 604 -207 81 -55 232 -193 280 -258 l23 -30 -20 34 c-103 176 -352 360
-587 434 -161 50 -258 61 -540 62 -160 0 -314 -6 -400 -15 -183 -19 -477 -17
-623 3 -122 17 -365 68 -358 74 2 2 39 0 82 -6 256 -34 479 -43 784 -35 463
14 757 10 872 -9 251 -43 484 -155 678 -325 41 -37 64 -53 50 -37 -156 185
-406 318 -690 369 -182 33 -297 39 -560 30 -354 -12 -750 -10 -905 4 -71 7
-196 17 -277 21 -116 7 -154 13 -180 28 -39 22 -47 49 -19 58 11 3 156 0 323
-7 455 -19 709 -17 906 10 286 39 541 28 772 -33 107 -29 276 -108 393 -184
42 -28 77 -48 77 -46 0 11 -189 129 -273 171 -114 58 -234 97 -377 125 -102
19 -134 21 -290 15 -96 -3 -213 -13 -260 -21 -184 -31 -266 -37 -455 -32 -193
6 -296 19 -440 56 -44 11 -138 31 -209 46 -133 27 -190 48 -184 68 6 17 166
92 260 121 16 5 16 7 1 37 -27 54 0 94 67 98 9 1 48 -15 89 -34z m5167 -141
c35 -5 83 -49 68 -63 -5 -6 -39 -6 -82 -1 -72 8 -102 23 -122 61 -8 13 -1 15
48 12 31 -2 71 -6 88 -9z m-5007 -49 c276 -62 456 -69 736 -29 86 13 190 18
370 18 242 1 254 0 359 -27 119 -30 265 -84 336 -125 84 -48 219 -153 270
-210 48 -54 110 -160 110 -188 0 -7 -37 24 -82 70 -176 176 -429 333 -663 412
-196 65 -368 67 -755 8 -143 -22 -187 -25 -330 -21 -121 4 -188 11 -250 26
-164 41 -324 101 -268 101 7 0 82 -16 167 -35z m3346 -7 c39 -6 117 -26 175
-44 179 -58 302 -77 490 -77 191 0 298 11 575 58 267 45 375 48 375 10 0 -70
-457 -132 -896 -122 -259 6 -340 19 -535 85 -165 56 -230 66 -405 59 -339 -12
-582 -106 -781 -303 -79 -77 -91 -73 -47 14 89 178 388 309 757 331 130 7 195
5 292 -11z m1794 -53 c68 -35 37 -85 -54 -85 -36 0 -57 5 -66 16 -11 14 -8 21
24 50 41 38 55 41 96 19z m353 -77 c3 -46 13 -125 22 -177 l17 -93 -38 -77
c-21 -42 -40 -78 -41 -81 -5 -7 -39 36 -69 87 -21 37 -72 203 -73 239 0 6 11
16 25 22 14 7 37 35 54 71 29 57 62 91 87 91 8 0 13 -29 16 -82z m-6344 58
c15 -8 38 -26 52 -41 35 -38 34 -119 -4 -250 -16 -55 -33 -104 -36 -108 -4 -4
-18 16 -31 45 -21 47 -24 71 -27 211 -4 168 -4 169 46 143z m809 -112 c-3 -3
-12 -4 -19 -1 -8 3 -5 6 6 6 11 1 17 -2 13 -5z m5220 -61 c3 -10 19 -32 36
-50 16 -17 26 -36 23 -42 -4 -6 -30 -11 -58 -11 -39 0 -57 5 -75 22 -28 26
-31 73 -5 87 28 17 72 13 79 -6z m-5817 -141 c0 -37 -21 -65 -46 -60 -16 3
-20 13 -22 62 -5 87 3 98 39 58 17 -19 29 -43 29 -60z m4122 -12 c86 -6 217
-19 290 -31 199 -31 529 -36 893 -13 377 23 375 23 389 1 15 -24 -10 -43 -67
-51 -83 -12 -365 -26 -651 -32 -243 -5 -336 -3 -566 14 -406 31 -489 34 -667
22 -260 -16 -381 -47 -573 -146 l-105 -54 60 55 c75 70 188 141 270 171 167
61 424 83 727 64z m1793 -130 c16 -16 24 -30 18 -30 -7 0 -21 14 -33 30 -12
17 -20 30 -18 30 3 0 17 -13 33 -30z m-5475 -140 c248 -25 432 -40 504 -40 44
0 77 -3 73 -6 -8 -9 -756 -5 -832 4 -45 5 -61 11 -63 24 -3 13 6 18 40 21 85
7 185 6 278 -3z m5643 -469 c-3 -64 -78 -114 -236 -156 -109 -30 -225 -34
-295 -10 -56 18 -148 83 -136 95 5 4 88 18 186 30 97 12 241 35 320 50 78 15
148 26 153 25 6 -1 9 -17 8 -34z m-5849 -45 c104 -13 171 -26 173 -33 5 -15
-99 -86 -151 -103 -95 -31 -232 17 -297 104 -47 65 -41 74 39 63 37 -5 143
-19 236 -31z m2300 -201 l55 -27 308 4 c286 3 311 5 353 24 41 19 84 59 118
110 10 16 12 4 9 -74 -6 -175 -45 -191 -462 -192 -256 0 -383 11 -428 37 -45
26 -68 79 -74 170 l-5 78 36 -52 c26 -37 50 -58 90 -78z m-1547 -300 c12 -8
38 -50 59 -92 43 -90 116 -168 192 -207 29 -15 52 -30 52 -35 0 -28 -196 -41
-255 -17 -32 14 -65 59 -65 89 0 7 -13 26 -30 42 -38 36 -37 30 1 -45 36 -71
37 -123 3 -128 -44 -6 -184 179 -184 243 1 63 51 136 110 158 30 11 96 7 117
-8z m3892 -6 c33 -12 61 -53 61 -90 0 -11 -16 -37 -35 -56 -19 -19 -27 -32
-18 -28 41 17 53 17 53 2 0 -30 -21 -72 -53 -105 -76 -80 -185 -101 -374 -75
-142 19 -141 14 -9 88 128 72 172 108 186 152 19 59 55 100 97 111 52 14 55
14 92 1z m-3568 -70 c182 -59 270 -105 373 -196 103 -89 99 -99 -26 -64 -78
22 -358 142 -432 185 -50 29 -101 89 -91 106 11 18 49 11 176 -31z m3299 -9
c0 -22 -55 -66 -116 -92 -21 -10 -113 -46 -204 -81 -171 -67 -257 -92 -300
-86 l-24 4 34 32 c77 72 242 150 440 208 137 41 170 43 170 15z m-915 -589
c-14 -12 -104 -41 -128 -41 -31 0 -11 13 46 32 58 18 96 23 82 9z m-1214 -388
c65 -33 189 -137 177 -148 -10 -10 -63 16 -118 59 -30 24 -88 62 -127 85 -40
23 -73 44 -73 47 0 13 82 -12 141 -43z m959 22 c0 -2 -21 -16 -47 -31 -27 -15
-74 -45 -106 -67 -71 -47 -127 -71 -138 -60 -22 22 94 102 198 139 66 23 93
29 93 19z"/>
<path d="M5660 7229 c0 -6 36 -47 79 -93 95 -101 116 -151 109 -255 -6 -81
-33 -136 -89 -185 -24 -20 -39 -39 -36 -43 11 -10 85 18 135 51 181 120 171
394 -18 474 -65 28 -180 60 -180 51z"/>
<path d="M6610 7209 c-115 -23 -230 -110 -282 -217 -30 -60 -33 -75 -33 -157
0 -80 3 -97 32 -158 45 -94 119 -169 212 -215 70 -35 81 -37 166 -37 80 0 97
4 158 32 90 43 169 119 210 202 30 62 32 73 32 171 0 93 -3 112 -27 162 -79
169 -267 256 -468 217z m175 -64 c98 -16 197 -102 236 -204 29 -78 25 -214 -9
-283 -30 -60 -86 -116 -153 -153 -44 -23 -69 -30 -135 -33 -73 -4 -89 -1 -140
22 -88 41 -138 87 -176 164 -30 60 -33 75 -33 157 0 82 3 97 33 157 48 97 132
159 239 178 48 8 61 7 138 -5z"/>
<path d="M6144 6019 c-51 -14 -94 -71 -94 -122 0 -43 13 -67 37 -67 10 0 9 8
-3 34 -22 44 -9 83 37 114 58 40 143 15 169 -48 10 -25 11 -40 3 -61 -13 -34
-13 -35 29 -9 65 39 172 14 219 -51 19 -27 24 -47 24 -96 0 -35 3 -63 6 -63
16 0 31 64 27 111 -6 58 -28 92 -87 134 -37 26 -51 30 -112 30 -67 1 -70 2
-89 32 -34 56 -101 81 -166 62z"/>
<path d="M6249 5627 c7 -10 26 -17 42 -17 17 0 34 -8 43 -22 9 -12 16 -17 16
-11 0 24 -37 54 -75 60 -36 6 -39 5 -26 -10z"/>
<path d="M6655 5590 c3 -5 15 -10 26 -10 11 0 17 5 14 10 -3 6 -15 10 -26 10
-11 0 -17 -4 -14 -10z"/>
<path d="M4283 7800 c-50 -10 -92 -31 -153 -75 -92 -67 -157 -91 -359 -135
-238 -52 -347 -96 -516 -207 -167 -110 -313 -257 -441 -443 -58 -87 -167 -301
-179 -355 -3 -16 25 33 64 110 105 212 228 373 386 505 224 188 438 291 742
354 152 32 225 59 332 125 99 60 148 75 213 68 68 -8 127 -37 238 -117 205
-148 385 -191 609 -147 109 22 141 21 229 -5 54 -16 76 -18 84 -10 17 17 -16
50 -77 78 -59 28 -153 32 -227 9 -86 -25 -195 -36 -264 -25 -102 17 -167 46
-311 142 -74 50 -156 98 -181 108 -60 23 -136 31 -189 20z"/>
<path d="M5200 7729 c-41 -22 -85 -24 -120 -4 -32 18 -70 19 -70 1 0 -7 10
-20 23 -29 35 -24 12 -32 -85 -31 -99 2 -103 -7 -13 -30 109 -29 272 -18 372
25 48 20 53 38 21 69 -27 25 -80 25 -128 -1z"/>
<path d="M2611 6263 c-17 -70 -35 -157 -41 -193 -10 -68 -14 -177 -5 -168 3 2
16 79 29 169 14 90 32 197 41 238 26 122 10 91 -24 -46z"/>
<path d="M2916 5835 c-12 -83 0 -275 23 -370 36 -149 132 -342 293 -595 111
-172 241 -355 245 -343 2 5 -41 83 -96 174 -346 575 -436 787 -450 1064 -7
124 -7 127 -15 70z"/>
<path d="M6616 4108 c49 -9 211 -8 242 0 13 4 -45 7 -129 7 -87 0 -135 -3
-113 -7z"/>
<path d="M6928 4113 c6 -2 18 -2 25 0 6 3 1 5 -13 5 -14 0 -19 -2 -12 -5z"/>
<path d="M6178 3833 c12 -2 30 -2 40 0 9 3 -1 5 -23 4 -22 0 -30 -2 -17 -4z"/>
<path d="M4700 3537 c0 -2 24 -24 53 -48 28 -24 46 -36 38 -26 -16 20 -91 81
-91 74z"/>
<path d="M4860 3385 c13 -14 26 -25 28 -25 3 0 -5 11 -18 25 -13 14 -26 25
-28 25 -3 0 5 -11 18 -25z"/>
<path d="M5823 3183 c9 -2 25 -2 35 0 9 3 1 5 -18 5 -19 0 -27 -2 -17 -5z"/>
<path d="M5743 3173 c9 -2 25 -2 35 0 9 3 1 5 -18 5 -19 0 -27 -2 -17 -5z"/>
<path d="M5635 3158 c-146 -35 -315 -113 -375 -171 -32 -31 -60 -82 -60 -109
0 -7 15 13 33 44 17 32 48 70 67 84 61 46 199 105 314 135 61 15 100 28 86 28
-14 -1 -43 -5 -65 -11z"/>
<path d="M1410 5513 c0 -5 15 -27 33 -49 19 -21 48 -63 65 -93 l30 -54 7 45
c9 61 -11 99 -62 117 -21 7 -46 20 -55 29 -10 8 -18 11 -18 5z"/>
<path d="M8939 5000 c-9 -5 -62 -9 -117 -7 -129 3 -148 -11 -60 -42 98 -36
109 -36 150 -4 20 15 39 36 41 46 3 9 4 17 4 17 -1 0 -9 -5 -18 -10z"/>
<path d="M7365 2750 c-11 -5 -17 -9 -13 -9 3 -1 14 -4 24 -8 12 -5 15 -3 9 6
-6 10 -2 11 16 6 19 -5 21 -4 9 4 -17 12 -18 12 -45 1z"/>
<path d="M7465 2690 c3 -5 8 -10 11 -10 2 0 4 5 4 10 0 6 -5 10 -11 10 -5 0
-7 -4 -4 -10z"/>
<path d="M7485 2661 c-3 -5 -1 -12 5 -16 5 -3 10 1 10 9 0 18 -6 21 -15 7z"/>
<path d="M7532 2615 c4 -4 2 -15 -5 -23 -8 -11 -9 -14 0 -9 8 5 11 -1 9 -18
-1 -14 -5 -28 -9 -31 -3 -3 -3 -12 -1 -18 3 -7 -7 -21 -21 -30 -20 -13 -25
-23 -21 -39 5 -21 4 -21 -9 -3 -8 10 -12 23 -9 27 3 5 0 9 -5 9 -6 0 -11 -6
-11 -14 0 -15 33 -78 55 -106 18 -22 55 -127 55 -155 0 -21 4 -24 40 -23 49 0
80 -24 80 -62 0 -15 -18 -55 -40 -89 -22 -34 -40 -71 -40 -82 0 -72 -92 -130
-219 -137 -99 -6 -106 1 -106 112 0 45 3 101 8 126 l7 45 -37 -70 c-34 -64
-37 -78 -39 -157 -2 -48 -5 -91 -8 -96 -2 -4 -38 -25 -79 -45 -42 -21 -104
-63 -138 -94 -59 -52 -146 -102 -179 -103 -8 0 -22 -5 -30 -11 -11 -8 6 -9 60
-6 91 5 136 23 268 111 113 76 203 115 355 157 60 16 125 36 145 44 87 37 142
108 142 184 0 58 -38 146 -81 191 -21 22 -48 58 -60 82 -19 38 -21 53 -16 144
4 88 2 107 -14 133 -10 17 -24 31 -29 31 -6 0 -9 4 -5 9 3 5 0 13 -7 17 -7 4
-10 4 -6 -1z m28 -56 c0 -6 7 -17 15 -25 8 -9 14 -25 14 -37 -1 -20 -2 -21 -6
-2 -8 34 -25 44 -18 10 5 -23 4 -26 -4 -15 -7 10 -11 11 -11 3 0 -7 -4 -13 -9
-13 -4 0 -6 11 -3 25 2 14 9 25 15 25 7 0 7 4 -1 12 -15 15 -16 28 -2 28 6 0
10 -5 10 -11z"/>
<path d="M6745 2546 l-30 -15 30 5 c23 4 27 3 15 -5 -8 -6 -26 -11 -40 -12
-17 -1 -20 -3 -7 -6 9 -2 15 -9 11 -14 -3 -6 5 -7 23 -2 15 4 87 7 158 7 192
0 308 -38 413 -138 109 -103 124 -188 58 -336 -21 -47 -41 -98 -43 -115 l-6
-30 28 25 c89 82 134 193 117 289 -29 166 -144 265 -379 327 -123 32 -302 42
-348 20z"/>
<path d="M7380 2517 c0 -2 14 -16 30 -32 36 -35 40 -26 5 10 -24 23 -35 30
-35 22z"/>
<path d="M6675 2490 c-13 -6 -15 -9 -5 -9 8 0 22 4 30 9 18 12 2 12 -25 0z"/>
<path d="M2671 2225 c11 -31 46 -75 61 -75 4 0 8 16 8 35 0 34 -10 42 -44 36
-4 -1 -15 6 -22 16 -12 16 -13 14 -3 -12z"/>
<path d="M4150 2000 c60 -57 134 -114 193 -149 57 -35 44 -20 -30 34 -38 26
-84 63 -103 80 -19 18 -53 44 -75 60 -35 24 -33 20 15 -25z"/>
<path d="M5460 1700 c-6 -11 -8 -20 -6 -20 3 0 10 9 16 20 6 11 8 20 6 20 -3
0 -10 -9 -16 -20z"/>
<path d="M5315 1589 c-4 -6 -5 -12 -2 -15 2 -3 7 2 10 11 7 17 1 20 -8 4z"/>
</g>
</svg>
